<svg xmlns="http://www.w3.org/2000/svg" version="1.1" xmlns:xlink="http://www.w3.org/1999/xlink" xmlns:svgjs="http://svgjs.dev/svgjs" width="2000" height="719" viewBox="0 0 2000 719"><g transform="matrix(1,0,0,1,0.3398876404492057,1.2081564268869442)"><svg viewBox="0 0 356 128" data-background-color="#ffffff" preserveAspectRatio="xMidYMid meet" height="719" width="2000" xmlns="http://www.w3.org/2000/svg" xmlns:xlink="http://www.w3.org/1999/xlink"><g id="tight-bounds" transform="matrix(1,0,0,1,-0.06049999999996203,-0.21508208990476874)"><svg viewBox="0 0 356.12052 128.43016417980954" height="128.43016417980954" width="356.12052"><g><svg viewBox="0 0 356.12052 128.43016417980954" height="128.43016417980954" width="356.12052"><g><svg viewBox="0 0 356.12052 128.43016417980954" height="128.43016417980954" width="356.12052"><g><path d="M0 128.43v-128.43h356.121v128.43z" fill="#000000" stroke="transparent" stroke-width="0" rx="0%" data-fill-palette-color="tertiary"></path><path d="M3.283 125.147v-121.864h349.554v121.864z" fill="#ffffff" stroke="transparent" stroke-width="0" rx="0%" data-fill-palette-color="quaternary"></path><path d="M9.85 118.58v-108.73h336.421v108.73z" fill="#000000" stroke="transparent" stroke-width="0" data-fill-palette-color="tertiary"></path></g><g transform="matrix(1,0,0,1,19.69974,19.69974)" id="textblocktransform"><svg viewBox="0 0 316.72104 89.03068417980954" height="89.03068417980954" width="316.72104" id="textblock"><g><svg viewBox="0 0 316.72104 46.854604647619055" height="46.854604647619055" width="316.72104"><g transform="matrix(1,0,0,1,0,0)"><svg width="316.72104" viewBox="0 -34.95 236.24 34.95" height="46.854604647619055" data-palette-color="#ffffff"><path d="M44.3-2.15L49.15-2.15 49.15 0 38.4 0 38.4-27.3 26.2-3.05 22.9-3.05 10.75-27.3 10.75 0 0 0 0-2.15 4.85-2.15 4.85-34.95 14.05-34.95 24.6-13 35.15-34.95 44.3-34.95 44.3-2.15ZM49.15-2.15L54-2.15 54-34.95 78.55-34.95 78.55-29.4 59.9-29.4 59.9-20.15 76.65-20.15 76.65-14.9 59.9-14.9 59.9-5.55 79.15-5.55 79.15-2.15 84-2.15 84 0 49.15 0 49.15-2.15ZM81.85-2.15L86.7-2.15 86.7-34.95 92.6-34.95 112.9-8.85 112.9-34.95 118.8-34.95 118.8-2.15 123.65-2.15 123.65 0 112.4 0 92.6-25.5 92.6 0 81.85 0 81.85-2.15ZM159.79-2.15L165.59-2.15 165.59 0 154.44 0 150.94-7.95 133.44-7.95 129.94 0 118.79 0 118.79-2.15 124.59-2.15 139.04-34.95 145.34-34.95 159.79-2.15ZM135.84-13.4L148.54-13.4 142.19-27.8 135.84-13.4ZM193.54-2.15L198.39-2.15 198.39 0 187.59 0 179.24-11.75 171.49-11.75 171.49 0 160.74 0 160.74-2.15 165.59-2.15 165.59-34.95 178.59-34.95Q186.59-34.95 190.04-32.25 193.49-29.55 193.49-23.6L193.49-23.6Q193.49-14.95 185.94-12.7L185.94-12.7 193.54-2.15ZM178.84-17.1Q183.84-17.1 185.64-18.65 187.44-20.2 187.44-23.63 187.44-27.05 185.59-28.33 183.74-29.6 178.99-29.6L178.99-29.6 171.49-29.6 171.49-17.1 178.84-17.1ZM224.69-2.15L236.24-2.15 236.24 0 197.14 0 197.14-2.15 201.99-2.15 201.99-34.95 213.99-34.95Q223.39-34.95 228.44-30.38 233.49-25.8 233.49-17.5L233.49-17.5Q233.49-6.35 224.69-2.15L224.69-2.15ZM227.54-17.5L227.54-17.5Q227.54-29.5 213.79-29.5L213.79-29.5 207.89-29.5 207.89-5.55 214.44-5.55Q220.79-5.55 224.16-8.58 227.54-11.6 227.54-17.5Z" opacity="1" transform="matrix(1,0,0,1,0,0)" fill="#ffffff" class="wordmark-text-0" data-fill-palette-color="quaternary" id="text-0"></path></svg></g></svg></g><g transform="matrix(1,0,0,1,0,53.42118464761906)"><svg viewBox="0 0 316.72104 35.60949953219048" height="35.60949953219048" width="316.72104"><g transform="matrix(1,0,0,1,0,0)"><svg width="316.72104" viewBox="1.95 -31.38 283.45 31.871011235955056" height="35.60949953219048" data-palette-color="#ffffff"><path d="M1.95-10.92L1.95-10.92Q1.95-15.69 4.66-18.85L4.66-18.85Q7.59-22.24 12.3-22.24L12.3-22.24Q16.32-22.24 18.45-20.57L18.45-20.57Q19.08-20.11 19.08-19.48 19.08-18.85 18.74-18.48 18.39-18.1 17.93-18.1 17.47-18.1 17.24-18.28L17.24-18.28Q15.06-19.54 12.64-19.48L12.64-19.48Q9.48-19.48 7.7-17.13L7.7-17.13Q5.69-14.71 5.69-10.92L5.69-10.92Q5.69-7.41 7.13-5L7.13-5Q8.85-2.24 12.64-2.24L12.64-2.24Q14.71-2.24 17.7-3.68L17.7-3.68Q18.51-4.14 19.08-3.45L19.08-3.45Q19.43-3.1 19.43-2.5 19.43-1.9 18.68-1.29 17.93-0.69 16.9-0.34L16.9-0.34Q14.37 0.52 12.01 0.49 9.66 0.46 7.76-0.4 5.86-1.26 4.6-2.93L4.6-2.93Q1.95-6.09 1.95-10.92ZM46.41-20.11L46.41-18.16Q47.79-22.24 52.45-22.24L52.45-22.24Q53.31-22.24 53.74-21.75 54.17-21.26 54.17-20.72 54.17-20.17 53.74-19.68 53.31-19.2 52.16-19.2 51.01-19.2 49.86-18.74 48.71-18.28 47.96-17.41L47.96-17.41Q46.41-15.52 46.41-12.41L46.41-12.41 46.41-1.61Q46.41-0.8 45.84-0.4 45.26 0 44.8 0 44.34 0 44.05-0.09 43.77-0.17 43.48-0.46L43.48-0.46Q42.96-0.8 42.96-1.61L42.96-1.61 42.96-20.11Q42.96-20.86 43.48-21.35 44-21.84 44.77-21.84 45.55-21.84 45.98-21.35 46.41-20.86 46.41-20.11L46.41-20.11ZM96.16-11.55L96.16-11.55Q96.16-10.34 94.78-10.23L94.78-10.23 79.03-10.23Q79.26-4.37 83.63-2.64L83.63-2.64Q84.83-2.24 86.39-2.24L86.39-2.24Q89.6-2.24 92.94-4.6L92.94-4.6Q93.97-5.17 94.66-4.48L94.66-4.48Q95.01-4.14 94.89-3.79L94.89-3.79Q94.89-2.99 94.49-2.64L94.49-2.64Q91.33 0.52 86.16 0.46L86.16 0.46Q81.44 0.46 78.57-2.59L78.57-2.59Q75.35-5.75 75.35-10.92L75.35-10.92Q75.35-15.69 77.99-18.79L77.99-18.79Q80.75-22.24 85.81-22.24L85.81-22.24Q90.87-22.24 93.51-19.2L93.51-19.2Q96.04-16.44 96.16-11.55ZM79.14-12.59L92.76-12.59Q92.59-15.69 90.75-17.7L90.75-17.7Q89.03-19.54 85.81-19.54L85.81-19.54Q83.05-19.54 81.1-17.47L81.1-17.47Q79.32-15.4 79.14-12.59L79.14-12.59ZM130.15-13.28L130.15-13.28Q131.36-13.28 132.57-13.22L132.57-13.22 132.57-15.06Q132.57-19.54 127.57-19.54L127.57-19.54Q125.33-19.54 124.29-19.14L124.29-19.14Q122.45-18.45 121.65-17.96 120.84-17.47 120.38-17.47 119.92-17.47 119.52-17.82 119.12-18.16 119.12-18.74L119.12-18.74Q119.12-19.2 119.64-19.66L119.64-19.66Q122.34-22.24 127.62-22.24L127.62-22.24Q133.72-22.24 135.44-18.16L135.44-18.16Q136.02-16.72 136.02-14.83L136.02-14.83 135.9-1.55Q135.9-0.8 135.38-0.4 134.87 0 134.23 0 133.6 0 133.08-0.34 132.57-0.69 132.57-1.49L132.57-1.49 132.57-3.56Q131.19-0.57 127.62 0.17L127.62 0.17Q126.53 0.46 125.15 0.46 123.77 0.46 122.42 0.06 121.07-0.34 120.04-1.21L120.04-1.21Q117.91-2.99 117.91-6.03L117.91-6.03Q117.91-13.28 130.15-13.28ZM132.57-8.74L132.57-10.69Q131.65-10.57 130.44-10.57 129.23-10.57 127.97-10.55 126.7-10.52 125.56-10.26 124.41-10 123.49-9.48L123.49-9.48Q121.53-8.45 121.42-6.09L121.42-6.09Q121.42-4.25 122.91-3.22L122.91-3.22Q124.06-2.3 126.19-2.24L126.19-2.24Q128.77-2.24 130.67-3.91L130.67-3.91Q132.39-5.52 132.57-8.74L132.57-8.74ZM172.37-1.26L172.37-1.26Q172.37 0.46 168.29 0.46L168.29 0.46Q165.24 0.46 163.98-1.21L163.98-1.21Q162.6-2.99 162.48-7.07L162.48-7.07 162.48-19.14 159.96-19.14Q159.27-19.14 158.86-19.57 158.46-20 158.46-20.46L158.46-20.46Q158.46-20.92 158.81-21.38 159.15-21.84 159.96-21.84L159.96-21.84 162.71-21.84 162.94-28.05Q163.06-28.74 163.58-29.11 164.09-29.48 164.67-29.48 165.24-29.48 165.64-29.14 166.05-28.79 166.05-28.05L166.05-28.05 166.05-21.84 170.01-21.84Q170.7-21.84 171.08-21.38 171.45-20.92 171.45-20.46L171.45-20.46Q171.45-19.89 171.08-19.51 170.7-19.14 170.01-19.14L170.01-19.14 166.05-19.14 166.05-8.97Q166.05-4.71 166.33-3.82 166.62-2.93 167.25-2.59 167.89-2.24 168.81-2.24L168.81-2.24 171.05-2.41Q171.68-2.41 172.02-2.01 172.37-1.61 172.37-1.26ZM198.67-29.43L198.67-29.43Q198.67-28.51 198.03-27.93 197.4-27.36 196.25-27.36 195.1-27.36 194.47-27.93 193.84-28.51 193.84-29.43L193.84-29.43Q193.84-30.23 194.47-30.8 195.1-31.38 196.28-31.38 197.46-31.38 198.06-30.8 198.67-30.23 198.67-29.43ZM194.53-1.72L194.53-20Q194.53-20.86 195.1-21.35 195.68-21.84 196.14-21.84 196.6-21.84 196.88-21.7 197.17-21.55 197.46-21.26L197.46-21.26Q198.09-20.86 198.09-20L198.09-20 198.09-1.72Q198.09-0.86 197.52-0.43 196.94 0 196.25 0L196.25 0Q195.56 0 195.04-0.43 194.53-0.86 194.53-1.72L194.53-1.72ZM221.57-10.86L221.57-10.86Q221.57-12.93 222.23-15 222.89-17.07 224.27-18.74L224.27-18.74Q227.15-22.24 232.43-22.24 237.72-22.24 240.59-18.74L240.59-18.74Q243.29-15.4 243.29-10.92L243.29-10.92Q243.29-6.38 240.59-3.1L240.59-3.1Q237.72 0.46 232.43 0.46 227.15 0.46 224.27-3.1L224.27-3.1Q221.57-6.32 221.57-10.86ZM225.31-10.86L225.31-10.86Q225.31-9.48 225.68-7.93 226.05-6.38 227.03-5.06L227.03-5.06Q228.98-2.24 232.43-2.24L232.43-2.24Q236.05-2.24 237.83-5.06L237.83-5.06Q239.5-7.7 239.5-10.92L239.5-10.92Q239.5-14.25 237.83-16.67L237.83-16.67Q236-19.54 232.43-19.54L232.43-19.54Q228.98-19.54 227.03-16.67L227.03-16.67Q225.31-14.31 225.31-10.86ZM266.77-1.61L266.77-20.17Q266.77-20.92 267.35-21.38 267.92-21.84 268.5-21.84L268.5-21.84Q269.71-21.84 270.05-20.92 270.4-20 270.22-18.16L270.22-18.16Q270.91-19.89 273.21-21.15L273.21-21.15Q275.22-22.24 277.21-22.24 279.19-22.24 280.57-21.75 281.95-21.26 283.1-20.23L283.1-20.23Q285.4-18.05 285.4-13.79L285.4-13.79 285.4-1.61Q285.4-0.8 284.79-0.4 284.19 0 283.56 0L283.56 0Q282.87 0 282.35-0.43 281.83-0.86 281.83-1.61L281.83-1.61 281.83-14.02Q281.83-16.72 280.34-18.16L280.34-18.16Q278.96-19.54 276.89-19.54L276.89-19.54Q274.13-19.54 272.18-17.93L272.18-17.93Q270.22-16.21 270.22-12.64L270.22-12.64 270.22-1.61Q270.22-0.8 269.65-0.4 269.07 0 268.38 0L268.38 0Q267.69 0 267.23-0.43 266.77-0.86 266.77-1.61L266.77-1.61Z" opacity="1" transform="matrix(1,0,0,1,0,0)" fill="#ffffff" class="slogan-text-1" data-fill-palette-color="quaternary" id="text-1"></path></svg></g></svg></g></svg></g></svg></g><g></g></svg></g><defs></defs></svg><rect width="356.12052" height="128.43016417980954" fill="none" stroke="none" visibility="hidden"></rect></g></svg></g></svg>